<?xml version="1.0" encoding="UTF-8" standalone="no"?>
<svg
   xmlns:dc="http://purl.org/dc/elements/1.1/"
   xmlns:cc="http://creativecommons.org/ns#"
   xmlns:rdf="http://www.w3.org/1999/02/22-rdf-syntax-ns#"
   xmlns:svg="http://www.w3.org/2000/svg"
   xmlns="http://www.w3.org/2000/svg"
   xmlns:sodipodi="http://sodipodi.sourceforge.net/DTD/sodipodi-0.dtd"
   xmlns:inkscape="http://www.inkscape.org/namespaces/inkscape"
   viewBox="0 0 16 16"
   version="1.1"
   x="0px"
   y="0px"
   id="svg3757"
   sodipodi:docname="noun_emoji_920268.svg"
   width="16"
   height="16"
   inkscape:version="0.92.3 (2405546, 2018-03-11)">
  <metadata
     id="metadata3763">
    <rdf:RDF>
      <cc:Work
         rdf:about="">
        <dc:format>image/svg+xml</dc:format>
        <dc:type
           rdf:resource="http://purl.org/dc/dcmitype/StillImage" />
        <dc:title></dc:title>
      </cc:Work>
    </rdf:RDF>
  </metadata>
  <defs
     id="defs3761" />
  <sodipodi:namedview
     pagecolor="#ffffff"
     bordercolor="#666666"
     borderopacity="1"
     objecttolerance="10"
     gridtolerance="10"
     guidetolerance="10"
     inkscape:pageopacity="0"
     inkscape:pageshadow="2"
     inkscape:window-width="1440"
     inkscape:window-height="837"
     id="namedview3759"
     showgrid="false"
     fit-margin-top="0"
     fit-margin-left="0"
     fit-margin-right="0"
     fit-margin-bottom="0"
     inkscape:zoom="16.7"
     inkscape:cx="4.6517334"
     inkscape:cy="6.999722"
     inkscape:window-x="-8"
     inkscape:window-y="-8"
     inkscape:window-maximized="1"
     inkscape:current-layer="svg3757" />
  <g
     transform="translate(0,-1036.3622)"
     id="g3751">
    <path
       style="color:#000000;font-style:normal;font-variant:normal;font-weight:normal;font-stretch:normal;font-size:medium;line-height:normal;font-family:sans-serif;text-indent:0;text-align:start;text-decoration:none;text-decoration-line:none;text-decoration-style:solid;text-decoration-color:#000000;letter-spacing:normal;word-spacing:normal;text-transform:none;writing-mode:lr-tb;direction:ltr;baseline-shift:baseline;text-anchor:start;white-space:normal;clip-rule:nonzero;display:inline;overflow:visible;visibility:visible;opacity:1;isolation:auto;mix-blend-mode:normal;color-interpolation:sRGB;color-interpolation-filters:linearRGB;solid-color:#000000;solid-opacity:1;fill:#000000;fill-opacity:1;fill-rule:nonzero;stroke:none;stroke-width:0.99999994;stroke-linecap:round;stroke-linejoin:round;stroke-miterlimit:4;stroke-dasharray:none;stroke-dashoffset:0;stroke-opacity:1;color-rendering:auto;image-rendering:auto;shape-rendering:auto;text-rendering:auto;enable-background:accumulate"
       d="M 8,0 C 3.5876443,0 0,3.5877 0,8 c 0,4.4124 3.5876443,8 8,8 4.412356,0 8,-3.5876 8,-8 C 16,3.5877 12.412356,0 8,0 Z m 0,1 c 3.871916,0 7,3.1281 7,7 0,3.8719 -3.128084,7 -7,7 C 4.1280844,15 1,11.8719 1,8 1,4.1281 4.1280844,1 8,1 Z M 5,4.0019531 c -0.345473,0 -0.690946,0.089128 -1,0.2675781 C 3.381892,4.6263313 3,5.2863 3,6 A 0.50005,0.50005 0 0 0 3.4921875,6.5078125 0.50005,0.50005 0 0 0 4,6 C 4,5.642 4.1899047,5.3137656 4.5,5.1347656 c 0.3100953,-0.179 0.6899047,-0.179 1,0 C 5.8100953,5.3137656 6,5.642 6,6 A 0.50005,0.50005 0 1 0 7,6 C 7,5.2863 6.618108,4.6263313 6,4.2695312 5.690946,4.0910813 5.345473,4.0019531 5,4.0019531 Z m 6,0 c -0.345473,0 -0.690946,0.089128 -1,0.2675781 C 9.381892,4.6263313 9,5.2863 9,6 A 0.50005,0.50005 0 0 0 9.4921875,6.5078125 0.50005,0.50005 0 0 0 10,6 c 0,-0.358 0.189905,-0.6862344 0.5,-0.8652344 0.310095,-0.179 0.689905,-0.179 1,0 C 11.810095,5.3137656 12,5.642 12,6 a 0.50005,0.50005 0 1 0 1,0 C 13,5.2863 12.618108,4.6263313 12,4.2695312 11.690946,4.0910813 11.345473,4.0019531 11,4.0019531 Z M 4,9 a 4,3.9999826 0 0 0 2,3.464844 4,3.9999826 0 0 0 4,0 A 4,3.9999826 0 0 0 12,9 Z"
       transform="translate(0,1036.3622)"
       id="path3749"
       inkscape:connector-curvature="0" />
  </g>
</svg>
